<svg width="795" height="104" viewBox="0 0 795 104" fill="none" xmlns="http://www.w3.org/2000/svg">
<rect width="795" height="104" rx="8" fill="#282A36"/>
<path d="M98.9322 64.216C97.8282 64.264 96.9882 64.096 96.4122 63.712C95.8602 63.328 95.5842 62.74 95.5842 61.948C95.5842 61.228 95.7642 60.7 96.1242 60.364C96.4842 60.004 97.0482 59.8 97.8162 59.752L98.9682 59.68C100.696 59.608 101.56 58.588 101.56 56.62V41.212C101.56 40.372 101.824 39.7 102.352 39.196C102.88 38.692 103.564 38.44 104.404 38.44C105.244 38.44 105.916 38.692 106.42 39.196C106.948 39.7 107.212 40.372 107.212 41.212V56.548C107.212 61.3 104.836 63.832 100.084 64.144L98.9322 64.216ZM126.11 45.964C126.95 45.964 127.61 46.192 128.09 46.648C128.594 47.104 128.846 47.728 128.846 48.52V61.732C128.846 62.476 128.582 63.076 128.054 63.532C127.55 63.988 126.89 64.216 126.074 64.216C125.306 64.216 124.694 64 124.238 63.568C123.782 63.136 123.554 62.56 123.554 61.84V61.48C123.002 62.392 122.27 63.088 121.358 63.568C120.47 64.048 119.462 64.288 118.334 64.288C116.102 64.288 114.434 63.676 113.33 62.452C112.25 61.204 111.71 59.332 111.71 56.836V48.52C111.71 47.728 111.95 47.104 112.43 46.648C112.934 46.192 113.606 45.964 114.446 45.964C115.286 45.964 115.946 46.192 116.426 46.648C116.906 47.104 117.146 47.728 117.146 48.52V56.944C117.146 58 117.362 58.78 117.794 59.284C118.25 59.788 118.934 60.04 119.846 60.04C120.902 60.04 121.754 59.68 122.402 58.96C123.074 58.24 123.41 57.292 123.41 56.116V48.52C123.41 47.728 123.65 47.104 124.13 46.648C124.61 46.192 125.27 45.964 126.11 45.964ZM121.358 43.876C121.07 44.092 120.758 44.2 120.422 44.2C120.038 44.2 119.714 44.068 119.45 43.804C119.186 43.54 119.054 43.228 119.054 42.868C119.054 42.556 119.162 42.244 119.378 41.932L122.474 37.792C123.074 36.976 123.794 36.568 124.634 36.568C125.234 36.568 125.762 36.784 126.218 37.216C126.674 37.648 126.902 38.152 126.902 38.728C126.902 39.448 126.518 40.096 125.75 40.672L121.358 43.876ZM135.754 64.216C134.962 64.216 134.302 64 133.774 63.568C133.27 63.136 133.018 62.5 133.018 61.66V40.996C133.018 40.156 133.27 39.52 133.774 39.088C134.302 38.656 134.962 38.44 135.754 38.44C136.522 38.44 137.158 38.656 137.662 39.088C138.19 39.52 138.454 40.156 138.454 40.996V61.66C138.454 62.5 138.19 63.136 137.662 63.568C137.158 64 136.522 64.216 135.754 64.216ZM145.351 64.216C144.559 64.216 143.899 64 143.371 63.568C142.867 63.136 142.615 62.5 142.615 61.66V48.52C142.615 47.68 142.879 47.044 143.407 46.612C143.935 46.18 144.583 45.964 145.351 45.964C146.119 45.964 146.755 46.18 147.259 46.612C147.787 47.044 148.051 47.68 148.051 48.52V61.66C148.051 62.5 147.787 63.136 147.259 63.568C146.755 64 146.119 64.216 145.351 64.216ZM145.351 43.084C144.391 43.084 143.635 42.844 143.083 42.364C142.531 41.86 142.255 41.188 142.255 40.348C142.255 39.508 142.531 38.848 143.083 38.368C143.635 37.888 144.391 37.648 145.351 37.648C146.287 37.648 147.031 37.9 147.583 38.404C148.159 38.884 148.447 39.532 148.447 40.348C148.447 41.188 148.171 41.86 147.619 42.364C147.067 42.844 146.311 43.084 145.351 43.084ZM160.169 45.892C162.761 45.892 164.681 46.528 165.929 47.8C167.177 49.048 167.801 50.968 167.801 53.56V61.696C167.801 62.488 167.573 63.112 167.117 63.568C166.661 64 166.025 64.216 165.209 64.216C164.441 64.216 163.817 63.988 163.337 63.532C162.881 63.052 162.653 62.44 162.653 61.696V61.444C162.293 62.332 161.693 63.028 160.853 63.532C160.013 64.036 159.029 64.288 157.901 64.288C156.701 64.288 155.609 64.048 154.625 63.568C153.665 63.088 152.897 62.416 152.321 61.552C151.769 60.688 151.493 59.728 151.493 58.672C151.493 57.376 151.817 56.356 152.465 55.612C153.137 54.868 154.205 54.328 155.669 53.992C157.133 53.656 159.137 53.488 161.681 53.488H162.617V52.84C162.617 51.832 162.389 51.1 161.933 50.644C161.501 50.188 160.769 49.96 159.737 49.96C158.705 49.96 157.217 50.32 155.273 51.04C154.721 51.304 154.253 51.436 153.869 51.436C153.341 51.436 152.921 51.256 152.609 50.896C152.297 50.512 152.141 50.02 152.141 49.42C152.141 48.94 152.249 48.544 152.465 48.232C152.681 47.92 153.029 47.632 153.509 47.368C154.349 46.912 155.369 46.552 156.569 46.288C157.793 46.024 158.993 45.892 160.169 45.892ZM159.089 60.544C160.145 60.544 160.997 60.196 161.645 59.5C162.293 58.78 162.617 57.856 162.617 56.728V56.116H162.005C160.061 56.116 158.693 56.272 157.901 56.584C157.133 56.896 156.749 57.46 156.749 58.276C156.749 58.948 156.965 59.5 157.397 59.932C157.853 60.34 158.417 60.544 159.089 60.544ZM198.66 50.86C200.124 51.292 201.252 52.048 202.044 53.128C202.86 54.184 203.268 55.492 203.268 57.052C203.268 59.188 202.476 60.88 200.892 62.128C199.332 63.376 197.172 64 194.412 64H184.98C184.14 64 183.492 63.772 183.036 63.316C182.58 62.86 182.352 62.212 182.352 61.372V41.248C182.352 40.408 182.58 39.76 183.036 39.304C183.492 38.848 184.14 38.62 184.98 38.62H194.052C196.692 38.62 198.78 39.208 200.316 40.384C201.876 41.56 202.656 43.168 202.656 45.208C202.656 46.528 202.296 47.692 201.576 48.7C200.88 49.684 199.908 50.404 198.66 50.86ZM187.824 48.952H193.116C194.556 48.952 195.612 48.712 196.284 48.232C196.98 47.728 197.328 46.972 197.328 45.964C197.328 44.908 196.98 44.14 196.284 43.66C195.612 43.156 194.556 42.904 193.116 42.904H187.824V48.952ZM193.764 59.716C195.252 59.716 196.332 59.464 197.004 58.96C197.676 58.456 198.012 57.64 198.012 56.512C198.012 55.384 197.676 54.556 197.004 54.028C196.332 53.5 195.252 53.236 193.764 53.236H187.824V59.716H193.764ZM217.288 45.964C218.008 45.916 218.572 46.084 218.98 46.468C219.412 46.828 219.628 47.38 219.628 48.124C219.628 48.916 219.436 49.504 219.052 49.888C218.668 50.272 217.984 50.512 217 50.608L215.92 50.716C214.6 50.86 213.64 51.292 213.04 52.012C212.464 52.732 212.176 53.656 212.176 54.784V61.66C212.176 62.5 211.912 63.136 211.384 63.568C210.88 64 210.244 64.216 209.476 64.216C208.684 64.216 208.024 64 207.496 63.568C206.992 63.136 206.74 62.5 206.74 61.66V48.448C206.74 47.656 207.004 47.044 207.532 46.612C208.06 46.18 208.696 45.964 209.44 45.964C210.16 45.964 210.76 46.18 211.24 46.612C211.72 47.02 211.96 47.596 211.96 48.34V49.312C212.392 48.28 213.04 47.488 213.904 46.936C214.792 46.384 215.752 46.072 216.784 46L217.288 45.964ZM223.926 64.216C223.134 64.216 222.474 64 221.946 63.568C221.442 63.136 221.19 62.5 221.19 61.66V48.52C221.19 47.68 221.454 47.044 221.982 46.612C222.51 46.18 223.158 45.964 223.926 45.964C224.694 45.964 225.33 46.18 225.834 46.612C226.362 47.044 226.626 47.68 226.626 48.52V61.66C226.626 62.5 226.362 63.136 225.834 63.568C225.33 64 224.694 64.216 223.926 64.216ZM223.926 43.084C222.966 43.084 222.21 42.844 221.658 42.364C221.106 41.86 220.83 41.188 220.83 40.348C220.83 39.508 221.106 38.848 221.658 38.368C222.21 37.888 222.966 37.648 223.926 37.648C224.862 37.648 225.606 37.9 226.158 38.404C226.734 38.884 227.022 39.532 227.022 40.348C227.022 41.188 226.746 41.86 226.194 42.364C225.642 42.844 224.886 43.084 223.926 43.084ZM241.67 60.256C242.39 60.304 242.918 60.484 243.254 60.796C243.59 61.108 243.758 61.564 243.758 62.164C243.758 62.86 243.482 63.388 242.93 63.748C242.378 64.108 241.586 64.252 240.554 64.18L239.546 64.108C235.346 63.772 233.246 61.576 233.246 57.52V50.392H231.806C231.014 50.392 230.414 50.224 230.006 49.888C229.598 49.528 229.394 49.024 229.394 48.376C229.394 47.704 229.598 47.2 230.006 46.864C230.414 46.504 231.014 46.324 231.806 46.324H233.246V43.516C233.246 42.724 233.486 42.1 233.966 41.644C234.47 41.188 235.142 40.96 235.982 40.96C236.822 40.96 237.482 41.188 237.962 41.644C238.442 42.1 238.682 42.724 238.682 43.516V46.324H241.202C242.834 46.324 243.65 47.008 243.65 48.376C243.65 49.024 243.446 49.528 243.038 49.888C242.63 50.224 242.018 50.392 241.202 50.392H238.682V57.916C238.682 58.636 238.85 59.188 239.186 59.572C239.522 59.932 240.014 60.136 240.662 60.184L241.67 60.256ZM254.26 64.288C252.388 64.288 250.744 63.916 249.328 63.172C247.912 62.404 246.82 61.336 246.052 59.968C245.284 58.576 244.9 56.944 244.9 55.072C244.9 53.2 245.284 51.58 246.052 50.212C246.82 48.82 247.912 47.752 249.328 47.008C250.744 46.264 252.388 45.892 254.26 45.892C256.132 45.892 257.776 46.264 259.192 47.008C260.608 47.752 261.7 48.82 262.468 50.212C263.236 51.58 263.62 53.2 263.62 55.072C263.62 56.944 263.236 58.576 262.468 59.968C261.7 61.336 260.608 62.404 259.192 63.172C257.776 63.916 256.132 64.288 254.26 64.288ZM254.26 60.148C256.9 60.148 258.22 58.456 258.22 55.072C258.22 53.368 257.872 52.096 257.176 51.256C256.504 50.416 255.532 49.996 254.26 49.996C251.62 49.996 250.3 51.688 250.3 55.072C250.3 58.456 251.62 60.148 254.26 60.148Z" fill="#DD6387"/>
<rect x="306.089" y="52.5363" width="30.2802" height="6.05603" rx="3.02802" transform="rotate(140 306.089 52.5363)" fill="#DD6387"/>
<rect x="302.196" y="56.1029" width="30.2802" height="6.05603" rx="3.02802" transform="rotate(-140 302.196 56.1029)" fill="#DD6387"/>
<rect x="65.7796" y="78.1129" width="52.9168" height="6.05603" rx="3.02802" transform="rotate(-80 65.7796 78.1129)" fill="#DD6387"/>
<rect x="36" y="51.4637" width="30.2802" height="6.05603" rx="3.02802" transform="rotate(-40 36 51.4637)" fill="#DD6387"/>
<rect x="39.8928" y="47.8971" width="30.2802" height="6.05603" rx="3.02802" transform="rotate(40 39.8928 47.8971)" fill="#DD6387"/>
</svg>
