<svg width="795" height="104" viewBox="0 0 795 104" fill="none" xmlns="http://www.w3.org/2000/svg">
<rect width="795" height="104" rx="8" fill="#282A36"/>
<path d="M81.9322 64.216C80.8282 64.264 79.9882 64.096 79.4122 63.712C78.8602 63.328 78.5842 62.74 78.5842 61.948C78.5842 61.228 78.7642 60.7 79.1242 60.364C79.4842 60.004 80.0482 59.8 80.8162 59.752L81.9682 59.68C83.6962 59.608 84.5602 58.588 84.5602 56.62V41.212C84.5602 40.372 84.8242 39.7 85.3522 39.196C85.8802 38.692 86.5642 38.44 87.4042 38.44C88.2442 38.44 88.9162 38.692 89.4202 39.196C89.9482 39.7 90.2122 40.372 90.2122 41.212V56.548C90.2122 61.3 87.8362 63.832 83.0842 64.144L81.9322 64.216ZM109.11 45.964C109.95 45.964 110.61 46.192 111.09 46.648C111.594 47.104 111.846 47.728 111.846 48.52V61.732C111.846 62.476 111.582 63.076 111.054 63.532C110.55 63.988 109.89 64.216 109.074 64.216C108.306 64.216 107.694 64 107.238 63.568C106.782 63.136 106.554 62.56 106.554 61.84V61.48C106.002 62.392 105.27 63.088 104.358 63.568C103.47 64.048 102.462 64.288 101.334 64.288C99.1025 64.288 97.4345 63.676 96.3305 62.452C95.2505 61.204 94.7105 59.332 94.7105 56.836V48.52C94.7105 47.728 94.9505 47.104 95.4305 46.648C95.9345 46.192 96.6065 45.964 97.4465 45.964C98.2865 45.964 98.9465 46.192 99.4265 46.648C99.9065 47.104 100.146 47.728 100.146 48.52V56.944C100.146 58 100.362 58.78 100.794 59.284C101.25 59.788 101.934 60.04 102.846 60.04C103.902 60.04 104.754 59.68 105.402 58.96C106.074 58.24 106.41 57.292 106.41 56.116V48.52C106.41 47.728 106.65 47.104 107.13 46.648C107.61 46.192 108.27 45.964 109.11 45.964ZM104.358 43.876C104.07 44.092 103.758 44.2 103.422 44.2C103.038 44.2 102.714 44.068 102.45 43.804C102.186 43.54 102.054 43.228 102.054 42.868C102.054 42.556 102.162 42.244 102.378 41.932L105.474 37.792C106.074 36.976 106.794 36.568 107.634 36.568C108.234 36.568 108.762 36.784 109.218 37.216C109.674 37.648 109.902 38.152 109.902 38.728C109.902 39.448 109.518 40.096 108.75 40.672L104.358 43.876ZM118.754 64.216C117.962 64.216 117.302 64 116.774 63.568C116.27 63.136 116.018 62.5 116.018 61.66V40.996C116.018 40.156 116.27 39.52 116.774 39.088C117.302 38.656 117.962 38.44 118.754 38.44C119.522 38.44 120.158 38.656 120.662 39.088C121.19 39.52 121.454 40.156 121.454 40.996V61.66C121.454 62.5 121.19 63.136 120.662 63.568C120.158 64 119.522 64.216 118.754 64.216ZM128.351 64.216C127.559 64.216 126.899 64 126.371 63.568C125.867 63.136 125.615 62.5 125.615 61.66V48.52C125.615 47.68 125.879 47.044 126.407 46.612C126.935 46.18 127.583 45.964 128.351 45.964C129.119 45.964 129.755 46.18 130.259 46.612C130.787 47.044 131.051 47.68 131.051 48.52V61.66C131.051 62.5 130.787 63.136 130.259 63.568C129.755 64 129.119 64.216 128.351 64.216ZM128.351 43.084C127.391 43.084 126.635 42.844 126.083 42.364C125.531 41.86 125.255 41.188 125.255 40.348C125.255 39.508 125.531 38.848 126.083 38.368C126.635 37.888 127.391 37.648 128.351 37.648C129.287 37.648 130.031 37.9 130.583 38.404C131.159 38.884 131.447 39.532 131.447 40.348C131.447 41.188 131.171 41.86 130.619 42.364C130.067 42.844 129.311 43.084 128.351 43.084ZM143.169 45.892C145.761 45.892 147.681 46.528 148.929 47.8C150.177 49.048 150.801 50.968 150.801 53.56V61.696C150.801 62.488 150.573 63.112 150.117 63.568C149.661 64 149.025 64.216 148.209 64.216C147.441 64.216 146.817 63.988 146.337 63.532C145.881 63.052 145.653 62.44 145.653 61.696V61.444C145.293 62.332 144.693 63.028 143.853 63.532C143.013 64.036 142.029 64.288 140.901 64.288C139.701 64.288 138.609 64.048 137.625 63.568C136.665 63.088 135.897 62.416 135.321 61.552C134.769 60.688 134.493 59.728 134.493 58.672C134.493 57.376 134.817 56.356 135.465 55.612C136.137 54.868 137.205 54.328 138.669 53.992C140.133 53.656 142.137 53.488 144.681 53.488H145.617V52.84C145.617 51.832 145.389 51.1 144.933 50.644C144.501 50.188 143.769 49.96 142.737 49.96C141.705 49.96 140.217 50.32 138.273 51.04C137.721 51.304 137.253 51.436 136.869 51.436C136.341 51.436 135.921 51.256 135.609 50.896C135.297 50.512 135.141 50.02 135.141 49.42C135.141 48.94 135.249 48.544 135.465 48.232C135.681 47.92 136.029 47.632 136.509 47.368C137.349 46.912 138.369 46.552 139.569 46.288C140.793 46.024 141.993 45.892 143.169 45.892ZM142.089 60.544C143.145 60.544 143.997 60.196 144.645 59.5C145.293 58.78 145.617 57.856 145.617 56.728V56.116H145.005C143.061 56.116 141.693 56.272 140.901 56.584C140.133 56.896 139.749 57.46 139.749 58.276C139.749 58.948 139.965 59.5 140.397 59.932C140.853 60.34 141.417 60.544 142.089 60.544ZM181.66 50.86C183.124 51.292 184.252 52.048 185.044 53.128C185.86 54.184 186.268 55.492 186.268 57.052C186.268 59.188 185.476 60.88 183.892 62.128C182.332 63.376 180.172 64 177.412 64H167.98C167.14 64 166.492 63.772 166.036 63.316C165.58 62.86 165.352 62.212 165.352 61.372V41.248C165.352 40.408 165.58 39.76 166.036 39.304C166.492 38.848 167.14 38.62 167.98 38.62H177.052C179.692 38.62 181.78 39.208 183.316 40.384C184.876 41.56 185.656 43.168 185.656 45.208C185.656 46.528 185.296 47.692 184.576 48.7C183.88 49.684 182.908 50.404 181.66 50.86ZM170.824 48.952H176.116C177.556 48.952 178.612 48.712 179.284 48.232C179.98 47.728 180.328 46.972 180.328 45.964C180.328 44.908 179.98 44.14 179.284 43.66C178.612 43.156 177.556 42.904 176.116 42.904H170.824V48.952ZM176.764 59.716C178.252 59.716 179.332 59.464 180.004 58.96C180.676 58.456 181.012 57.64 181.012 56.512C181.012 55.384 180.676 54.556 180.004 54.028C179.332 53.5 178.252 53.236 176.764 53.236H170.824V59.716H176.764ZM200.288 45.964C201.008 45.916 201.572 46.084 201.98 46.468C202.412 46.828 202.628 47.38 202.628 48.124C202.628 48.916 202.436 49.504 202.052 49.888C201.668 50.272 200.984 50.512 200 50.608L198.92 50.716C197.6 50.86 196.64 51.292 196.04 52.012C195.464 52.732 195.176 53.656 195.176 54.784V61.66C195.176 62.5 194.912 63.136 194.384 63.568C193.88 64 193.244 64.216 192.476 64.216C191.684 64.216 191.024 64 190.496 63.568C189.992 63.136 189.74 62.5 189.74 61.66V48.448C189.74 47.656 190.004 47.044 190.532 46.612C191.06 46.18 191.696 45.964 192.44 45.964C193.16 45.964 193.76 46.18 194.24 46.612C194.72 47.02 194.96 47.596 194.96 48.34V49.312C195.392 48.28 196.04 47.488 196.904 46.936C197.792 46.384 198.752 46.072 199.784 46L200.288 45.964ZM206.926 64.216C206.134 64.216 205.474 64 204.946 63.568C204.442 63.136 204.19 62.5 204.19 61.66V48.52C204.19 47.68 204.454 47.044 204.982 46.612C205.51 46.18 206.158 45.964 206.926 45.964C207.694 45.964 208.33 46.18 208.834 46.612C209.362 47.044 209.626 47.68 209.626 48.52V61.66C209.626 62.5 209.362 63.136 208.834 63.568C208.33 64 207.694 64.216 206.926 64.216ZM206.926 43.084C205.966 43.084 205.21 42.844 204.658 42.364C204.106 41.86 203.83 41.188 203.83 40.348C203.83 39.508 204.106 38.848 204.658 38.368C205.21 37.888 205.966 37.648 206.926 37.648C207.862 37.648 208.606 37.9 209.158 38.404C209.734 38.884 210.022 39.532 210.022 40.348C210.022 41.188 209.746 41.86 209.194 42.364C208.642 42.844 207.886 43.084 206.926 43.084ZM224.67 60.256C225.39 60.304 225.918 60.484 226.254 60.796C226.59 61.108 226.758 61.564 226.758 62.164C226.758 62.86 226.482 63.388 225.93 63.748C225.378 64.108 224.586 64.252 223.554 64.18L222.546 64.108C218.346 63.772 216.246 61.576 216.246 57.52V50.392H214.806C214.014 50.392 213.414 50.224 213.006 49.888C212.598 49.528 212.394 49.024 212.394 48.376C212.394 47.704 212.598 47.2 213.006 46.864C213.414 46.504 214.014 46.324 214.806 46.324H216.246V43.516C216.246 42.724 216.486 42.1 216.966 41.644C217.47 41.188 218.142 40.96 218.982 40.96C219.822 40.96 220.482 41.188 220.962 41.644C221.442 42.1 221.682 42.724 221.682 43.516V46.324H224.202C225.834 46.324 226.65 47.008 226.65 48.376C226.65 49.024 226.446 49.528 226.038 49.888C225.63 50.224 225.018 50.392 224.202 50.392H221.682V57.916C221.682 58.636 221.85 59.188 222.186 59.572C222.522 59.932 223.014 60.136 223.662 60.184L224.67 60.256ZM237.26 64.288C235.388 64.288 233.744 63.916 232.328 63.172C230.912 62.404 229.82 61.336 229.052 59.968C228.284 58.576 227.9 56.944 227.9 55.072C227.9 53.2 228.284 51.58 229.052 50.212C229.82 48.82 230.912 47.752 232.328 47.008C233.744 46.264 235.388 45.892 237.26 45.892C239.132 45.892 240.776 46.264 242.192 47.008C243.608 47.752 244.7 48.82 245.468 50.212C246.236 51.58 246.62 53.2 246.62 55.072C246.62 56.944 246.236 58.576 245.468 59.968C244.7 61.336 243.608 62.404 242.192 63.172C240.776 63.916 239.132 64.288 237.26 64.288ZM237.26 60.148C239.9 60.148 241.22 58.456 241.22 55.072C241.22 53.368 240.872 52.096 240.176 51.256C239.504 50.416 238.532 49.996 237.26 49.996C234.62 49.996 233.3 51.688 233.3 55.072C233.3 58.456 234.62 60.148 237.26 60.148Z" fill="#DD6387"/>
<rect x="36" y="51.4637" width="30.2802" height="6.05603" rx="3.02802" transform="rotate(-40 36 51.4637)" fill="#DD6387"/>
<rect x="39.8927" y="47.8971" width="30.2802" height="6.05603" rx="3.02802" transform="rotate(40 39.8927 47.8971)" fill="#DD6387"/>
<rect x="280.276" y="27.4178" width="52.9168" height="6.05603" rx="3.02802" transform="rotate(103.54 280.276 27.4178)" fill="#DD6387"/>
<rect x="311.749" y="55.5577" width="30.2802" height="6.05603" rx="3.02802" transform="rotate(140 311.749 55.5577)" fill="#DD6387"/>
<rect x="307.856" y="59.1243" width="30.2802" height="6.05603" rx="3.02802" transform="rotate(-140 307.856 59.1243)" fill="#DD6387"/>
</svg>
