<svg width="795" height="292" viewBox="0 0 795 292" fill="none" xmlns="http://www.w3.org/2000/svg">
<rect width="795" height="292" rx="8" fill="#FCE5E5"/>
<rect y="188" width="795" height="104" rx="8" fill="#282A36"/>
<path d="M105.126 226.44C105.966 226.44 106.638 226.692 107.142 227.196C107.646 227.7 107.898 228.372 107.898 229.212V249.408C107.898 250.248 107.646 250.932 107.142 251.46C106.638 251.964 105.966 252.216 105.126 252.216C104.286 252.216 103.614 251.964 103.11 251.46C102.63 250.956 102.39 250.272 102.39 249.408V241.344H90.6901V249.408C90.6901 250.248 90.4381 250.932 89.9341 251.46C89.4301 251.964 88.7701 252.216 87.9541 252.216C87.1141 252.216 86.4421 251.964 85.9381 251.46C85.4341 250.956 85.1821 250.272 85.1821 249.408V229.212C85.1821 228.372 85.4341 227.7 85.9381 227.196C86.4421 226.692 87.1141 226.44 87.9541 226.44C88.7941 226.44 89.4541 226.692 89.9341 227.196C90.4381 227.7 90.6901 228.372 90.6901 229.212V236.88H102.39V229.212C102.39 228.372 102.63 227.7 103.11 227.196C103.614 226.692 104.286 226.44 105.126 226.44ZM126.708 246.744C127.188 246.744 127.572 246.936 127.86 247.32C128.172 247.704 128.328 248.196 128.328 248.796C128.328 249.204 128.208 249.588 127.968 249.948C127.728 250.284 127.392 250.572 126.96 250.812C126.144 251.244 125.196 251.604 124.116 251.892C123.036 252.156 122.04 252.288 121.128 252.288C119.208 252.288 117.528 251.916 116.088 251.172C114.672 250.428 113.58 249.372 112.812 248.004C112.044 246.612 111.66 244.98 111.66 243.108C111.66 241.308 112.032 239.712 112.776 238.32C113.52 236.928 114.552 235.848 115.872 235.08C117.192 234.288 118.692 233.892 120.372 233.892C121.98 233.892 123.384 234.252 124.584 234.972C125.808 235.668 126.756 236.676 127.428 237.996C128.1 239.292 128.436 240.816 128.436 242.568C128.436 243.096 128.304 243.504 128.04 243.792C127.8 244.056 127.452 244.188 126.996 244.188H116.916C117.084 245.604 117.516 246.636 118.212 247.284C118.908 247.908 119.904 248.22 121.2 248.22C121.896 248.22 122.52 248.136 123.072 247.968C123.624 247.8 124.236 247.572 124.908 247.284C125.244 247.14 125.568 247.02 125.88 246.924C126.192 246.804 126.468 246.744 126.708 246.744ZM120.516 237.636C119.484 237.636 118.656 237.972 118.032 238.644C117.408 239.292 117.036 240.24 116.916 241.488H123.864C123.792 240.216 123.468 239.256 122.892 238.608C122.34 237.96 121.548 237.636 120.516 237.636ZM134.455 252.216C133.663 252.216 133.003 252 132.475 251.568C131.971 251.136 131.719 250.5 131.719 249.66V228.996C131.719 228.156 131.971 227.52 132.475 227.088C133.003 226.656 133.663 226.44 134.455 226.44C135.223 226.44 135.859 226.656 136.363 227.088C136.891 227.52 137.155 228.156 137.155 228.996V249.66C137.155 250.5 136.891 251.136 136.363 251.568C135.859 252 135.223 252.216 134.455 252.216ZM144.053 252.216C143.261 252.216 142.601 252 142.073 251.568C141.569 251.136 141.317 250.5 141.317 249.66V228.996C141.317 228.156 141.569 227.52 142.073 227.088C142.601 226.656 143.261 226.44 144.053 226.44C144.821 226.44 145.457 226.656 145.961 227.088C146.489 227.52 146.753 228.156 146.753 228.996V249.66C146.753 250.5 146.489 251.136 145.961 251.568C145.457 252 144.821 252.216 144.053 252.216ZM159.41 252.288C157.538 252.288 155.894 251.916 154.478 251.172C153.062 250.404 151.97 249.336 151.202 247.968C150.434 246.576 150.05 244.944 150.05 243.072C150.05 241.2 150.434 239.58 151.202 238.212C151.97 236.82 153.062 235.752 154.478 235.008C155.894 234.264 157.538 233.892 159.41 233.892C161.282 233.892 162.926 234.264 164.342 235.008C165.758 235.752 166.85 236.82 167.618 238.212C168.386 239.58 168.77 241.2 168.77 243.072C168.77 244.944 168.386 246.576 167.618 247.968C166.85 249.336 165.758 250.404 164.342 251.172C162.926 251.916 161.282 252.288 159.41 252.288ZM159.41 248.148C162.05 248.148 163.37 246.456 163.37 243.072C163.37 241.368 163.022 240.096 162.326 239.256C161.654 238.416 160.682 237.996 159.41 237.996C156.77 237.996 155.45 239.688 155.45 243.072C155.45 246.456 156.77 248.148 159.41 248.148ZM214.029 228.132C214.245 227.556 214.569 227.124 215.001 226.836C215.457 226.524 215.961 226.368 216.513 226.368C217.209 226.368 217.797 226.584 218.277 227.016C218.781 227.448 219.033 228.036 219.033 228.78C219.033 229.14 218.961 229.536 218.817 229.968L211.329 250.452C211.113 251.028 210.729 251.484 210.177 251.82C209.649 252.132 209.061 252.288 208.413 252.288C207.765 252.288 207.177 252.132 206.649 251.82C206.121 251.484 205.749 251.028 205.533 250.452L200.169 235.296L194.661 250.452C194.445 251.028 194.073 251.484 193.545 251.82C193.017 252.132 192.429 252.288 191.781 252.288C191.157 252.288 190.569 252.132 190.017 251.82C189.489 251.484 189.117 251.028 188.901 250.452L181.413 229.968C181.269 229.56 181.197 229.176 181.197 228.816C181.197 228.072 181.461 227.484 181.989 227.052C182.517 226.596 183.141 226.368 183.861 226.368C184.437 226.368 184.953 226.524 185.409 226.836C185.889 227.124 186.237 227.556 186.453 228.132L191.997 244.08L197.757 228.204C197.973 227.628 198.309 227.184 198.765 226.872C199.245 226.56 199.749 226.404 200.277 226.404C200.829 226.404 201.333 226.56 201.789 226.872C202.245 227.184 202.581 227.64 202.797 228.24L208.305 244.368L214.029 228.132ZM228.633 252.288C226.761 252.288 225.117 251.916 223.701 251.172C222.285 250.404 221.193 249.336 220.425 247.968C219.657 246.576 219.273 244.944 219.273 243.072C219.273 241.2 219.657 239.58 220.425 238.212C221.193 236.82 222.285 235.752 223.701 235.008C225.117 234.264 226.761 233.892 228.633 233.892C230.505 233.892 232.149 234.264 233.565 235.008C234.981 235.752 236.073 236.82 236.841 238.212C237.609 239.58 237.993 241.2 237.993 243.072C237.993 244.944 237.609 246.576 236.841 247.968C236.073 249.336 234.981 250.404 233.565 251.172C232.149 251.916 230.505 252.288 228.633 252.288ZM228.633 248.148C231.273 248.148 232.593 246.456 232.593 243.072C232.593 241.368 232.245 240.096 231.549 239.256C230.877 238.416 229.905 237.996 228.633 237.996C225.993 237.996 224.673 239.688 224.673 243.072C224.673 246.456 225.993 248.148 228.633 248.148ZM251.849 233.964C252.569 233.916 253.133 234.084 253.541 234.468C253.973 234.828 254.189 235.38 254.189 236.124C254.189 236.916 253.997 237.504 253.613 237.888C253.229 238.272 252.545 238.512 251.561 238.608L250.481 238.716C249.161 238.86 248.201 239.292 247.601 240.012C247.025 240.732 246.737 241.656 246.737 242.784V249.66C246.737 250.5 246.473 251.136 245.945 251.568C245.441 252 244.805 252.216 244.037 252.216C243.245 252.216 242.585 252 242.057 251.568C241.553 251.136 241.301 250.5 241.301 249.66V236.448C241.301 235.656 241.565 235.044 242.093 234.612C242.621 234.18 243.257 233.964 244.001 233.964C244.721 233.964 245.321 234.18 245.801 234.612C246.281 235.02 246.521 235.596 246.521 236.34V237.312C246.953 236.28 247.601 235.488 248.465 234.936C249.353 234.384 250.313 234.072 251.345 234L251.849 233.964ZM258.486 252.216C257.694 252.216 257.034 252 256.506 251.568C256.002 251.136 255.75 250.5 255.75 249.66V228.996C255.75 228.156 256.002 227.52 256.506 227.088C257.034 226.656 257.694 226.44 258.486 226.44C259.254 226.44 259.89 226.656 260.394 227.088C260.922 227.52 261.186 228.156 261.186 228.996V249.66C261.186 250.5 260.922 251.136 260.394 251.568C259.89 252 259.254 252.216 258.486 252.216ZM280.432 226.44C281.272 226.44 281.944 226.668 282.448 227.124C282.976 227.58 283.24 228.18 283.24 228.924V249.66C283.24 250.428 282.988 251.052 282.484 251.532C282.004 251.988 281.356 252.216 280.54 252.216C279.724 252.216 279.064 251.988 278.56 251.532C278.08 251.052 277.84 250.428 277.84 249.66V249.372C277.312 250.284 276.556 251.004 275.572 251.532C274.612 252.036 273.52 252.288 272.296 252.288C270.784 252.288 269.428 251.904 268.228 251.136C267.052 250.344 266.128 249.252 265.456 247.86C264.808 246.444 264.484 244.824 264.484 243C264.484 241.176 264.808 239.58 265.456 238.212C266.128 236.82 267.052 235.752 268.228 235.008C269.404 234.264 270.76 233.892 272.296 233.892C273.496 233.892 274.576 234.144 275.536 234.648C276.52 235.152 277.276 235.86 277.804 236.772V228.816C277.804 228.096 278.044 227.52 278.524 227.088C279.004 226.656 279.64 226.44 280.432 226.44ZM273.88 248.148C275.152 248.148 276.124 247.716 276.796 246.852C277.492 245.964 277.84 244.704 277.84 243.072C277.84 241.44 277.492 240.192 276.796 239.328C276.124 238.464 275.152 238.032 273.88 238.032C272.608 238.032 271.624 238.464 270.928 239.328C270.232 240.168 269.884 241.392 269.884 243C269.884 244.632 270.232 245.904 270.928 246.816C271.624 247.704 272.608 248.148 273.88 248.148Z" fill="#DD6387"/>
<rect x="36" y="239.464" width="30.2802" height="6.05603" rx="3.02802" transform="rotate(-40 36 239.464)" fill="#DD6387"/>
<rect x="39.8928" y="235.897" width="30.2802" height="6.05603" rx="3.02802" transform="rotate(40 39.8928 235.897)" fill="#DD6387"/>
<rect x="332.089" y="240.536" width="30.2802" height="6.05603" rx="3.02802" transform="rotate(140 332.089 240.536)" fill="#DD6387"/>
<rect x="328.196" y="244.103" width="30.2802" height="6.05603" rx="3.02802" transform="rotate(-140 328.196 244.103)" fill="#DD6387"/>
<circle cx="636" cy="148" r="125" fill="#DD6387"/>
<g clip-path="url(#clip0)">
<path d="M671.641 228.984L668.174 238.006L631.723 228.929L636.839 215.612L671.641 228.984Z" fill="#FFB7B7"/>
<path d="M681.271 230.043L670.093 259.135L669.725 258.994C666.722 257.84 664.3 255.54 662.993 252.601C661.685 249.662 661.598 246.323 662.752 243.32L662.752 243.319L669.579 225.55L681.271 230.043Z" fill="#2F2E41"/>
<path d="M616.252 116.014L600.367 117.501L599.579 164.765C599.79 167.081 600.899 169.223 602.669 170.731C604.44 172.239 606.73 172.995 609.051 172.835L619.122 172.141L616.252 116.014Z" fill="#E5E5E5"/>
<path d="M672.253 113.687L661.384 113.547L660.74 169.707C663.142 169.787 665.535 169.371 667.769 168.486C670.003 167.6 672.03 166.264 673.725 164.56C675.42 162.856 676.745 160.822 677.619 158.583C678.492 156.344 678.895 153.949 678.802 151.548L672.253 113.687Z" fill="#E5E5E5"/>
<path d="M674 111.932C674 135.351 659.002 131.809 640.5 131.809C621.998 131.809 607 135.351 607 111.932C607 88.5125 614.326 47 640.5 47C667.575 47 674 88.5125 674 111.932Z" fill="#4E3C3D"/>
<line x1="511" y1="215.5" x2="761" y2="215.5" stroke="white"/>
<path d="M609.187 189.657C608.929 191.286 608.556 192.895 608.069 194.47C607.52 196.013 606.673 197.439 606.172 198.997C604.574 203.964 606.789 209.501 610.329 213.335C613.398 216.646 617.36 218.999 621.736 220.109C624.929 220.912 628.249 221.027 631.539 221.139C640.65 221.448 649.996 221.724 658.63 218.796C661.357 217.848 663.992 216.651 666.5 215.22C667.292 214.843 667.99 214.294 668.543 213.612C669.201 212.675 669.285 211.459 669.28 210.314C669.26 206.451 668.477 202.608 668.663 198.75C668.766 196.613 669.166 194.478 668.969 192.347C668.697 189.928 667.683 187.652 666.067 185.83C664.451 184.009 662.312 182.732 659.942 182.173C657.493 181.647 654.953 181.933 652.459 182.173C645.987 182.795 639.487 183.086 632.985 183.044C626.341 183.002 619.739 181.987 613.128 181.882C611.174 181.85 611.213 182.453 610.591 184.345C610.017 186.086 609.549 187.86 609.187 189.657Z" fill="#2B7489"/>
<path d="M583.208 186.518C581.422 186.069 579.581 185.873 577.74 185.937C575.806 186.044 573.917 186.561 572.198 187.455C570.479 188.348 568.97 189.598 567.772 191.12C566.573 192.642 565.713 194.401 565.247 196.281C564.781 198.162 564.721 200.12 565.07 202.025C565.516 204.089 566.245 206.082 567.237 207.946C568.687 210.889 570.426 213.825 573.111 215.711C574.681 216.814 576.499 217.502 578.295 218.179L592.434 223.505C594.514 224.289 596.594 225.072 598.695 225.799C609.248 229.447 620.251 231.634 631.397 232.3C634.792 232.502 638.239 232.559 641.551 231.786C642.337 231.602 643.175 231.329 643.63 230.662C643.9 230.193 644.059 229.668 644.095 229.128L644.965 223.037C645.088 222.179 645.205 221.276 644.891 220.469C644.493 219.445 643.494 218.802 642.541 218.254C633.245 212.915 622.392 209.97 614.567 202.642C612.725 200.917 611.184 198.183 608.946 197.011C606.408 195.683 603.42 194.924 600.796 193.7C595.062 191.023 589.424 187.947 583.208 186.518Z" fill="#2B7489"/>
<path opacity="0.1" d="M597.324 194.73C602.322 196.296 623.422 207.145 627.039 210.933C626.554 211.108 610.106 201.89 609.613 201.742C605.126 200.395 600.615 199.04 596.355 197.07C595.498 196.673 590.787 194.81 591 193.729C591.241 192.508 596.437 194.452 597.324 194.73Z" fill="black"/>
<path d="M654.163 88.1199C661.362 80.9216 661.362 69.2509 654.163 62.0526C646.965 54.8543 635.294 54.8543 628.096 62.0526C620.898 69.2509 620.898 80.9216 628.096 88.1199C635.294 95.3182 646.965 95.3182 654.163 88.1199Z" fill="#FFB7B7"/>
<path d="M623.585 228.56L627.052 237.583L663.503 228.505L658.386 215.189L623.585 228.56Z" fill="#FFB7B7"/>
<path d="M625.647 225.127L632.474 242.895L632.474 242.896C633.628 245.899 633.541 249.238 632.233 252.177C630.926 255.117 628.504 257.416 625.501 258.57L625.133 258.711L613.955 229.619L625.647 225.127Z" fill="#2F2E41"/>
<path d="M627.486 100.128L614.03 110.345C614.03 110.345 599.831 110.789 600.311 119.865C600.791 128.941 606.474 171.915 606.474 171.915L607.706 186.701L631.093 193.365C643.729 196.965 657.08 197.252 669.859 194.196L667.079 179.362C667.079 179.362 678.333 111.992 671.554 109.026C664.774 106.06 660.537 106.908 660.537 106.908L652.039 99.4922L627.486 100.128Z" fill="#E5E5E5"/>
<path d="M696.447 183.065C699.375 182.33 702.411 182.123 705.412 182.452C707.808 182.716 710.278 183.383 712.027 185.042C714.157 187.061 714.842 190.183 714.899 193.117C714.992 198.962 713.054 204.657 709.415 209.231C708.526 210.387 707.469 211.405 706.28 212.249C704.996 213.052 703.628 213.711 702.2 214.214L670.536 226.704C662.206 229.99 653.846 233.285 645.158 235.451C644.685 235.679 644.141 235.71 643.646 235.537C643.151 235.364 642.745 235.002 642.516 234.529C642.51 234.515 642.503 234.5 642.496 234.486C639.722 230.523 637.394 226.265 635.556 221.791C635.469 221.685 635.409 221.559 635.381 221.424C635.353 221.29 635.357 221.15 635.394 221.018C635.432 220.886 635.5 220.764 635.594 220.664C635.688 220.564 635.805 220.488 635.934 220.442L658.331 207.574C659.935 206.652 661.557 205.717 662.889 204.433C663.857 203.495 664.65 202.391 665.229 201.175C665.694 200.205 665.737 197.917 666.33 197.2C666.911 196.498 668.897 196.442 669.814 196.166C671.108 195.77 672.375 195.291 673.607 194.733C678.617 192.491 683.078 189.235 687.881 186.611C690.574 185.07 693.453 183.879 696.447 183.065Z" fill="#2B7489"/>
<path opacity="0.1" d="M683.75 192.675C679.902 195.564 674.92 198.221 671.107 201.187C669.805 202.199 648.108 214.398 647.802 216.018C651.359 216.617 674.023 200.762 677.266 199.18C680.508 197.598 683.383 195.367 686.231 193.152C686.957 192.588 690.033 190.891 687.95 190.261C686.776 189.906 684.617 192.097 683.75 192.675Z" fill="black"/>
<path d="M695 187.094V188.933C695.001 189.437 694.93 189.937 694.79 190.407C694.729 190.617 694.654 190.82 694.567 191.013C694.293 191.619 693.903 192.121 693.437 192.469C692.971 192.817 692.444 193 691.908 193H589.092C588.556 193 588.029 192.817 587.563 192.469C587.097 192.121 586.707 191.619 586.433 191.013C586.346 190.82 586.271 190.617 586.21 190.407C586.07 189.937 585.999 189.437 586 188.933V187.094C586 186.56 586.08 186.031 586.235 185.538C586.39 185.045 586.618 184.596 586.905 184.218C587.192 183.841 587.533 183.541 587.908 183.337C588.283 183.132 588.685 183.027 589.091 183.027H595.019V182.17C595.019 182.147 595.022 182.125 595.028 182.105C595.035 182.084 595.044 182.066 595.056 182.05C595.068 182.034 595.082 182.022 595.098 182.013C595.114 182.004 595.13 182 595.147 182H598.24C598.274 182 598.307 182.018 598.331 182.049C598.355 182.081 598.369 182.124 598.369 182.169V183.027H600.3V182.17C600.3 182.147 600.304 182.125 600.31 182.105C600.317 182.084 600.326 182.066 600.338 182.05C600.35 182.034 600.364 182.022 600.38 182.013C600.395 182.004 600.412 182 600.429 182H603.522C603.556 182 603.588 182.018 603.613 182.049C603.637 182.081 603.65 182.124 603.651 182.169V183.027H605.585V182.17C605.585 182.147 605.588 182.125 605.594 182.105C605.601 182.084 605.61 182.066 605.622 182.05C605.634 182.034 605.648 182.022 605.664 182.013C605.679 182.004 605.696 182 605.713 182H608.806C608.84 182 608.873 182.018 608.897 182.049C608.921 182.081 608.935 182.124 608.935 182.169V183.027H610.866V182.17C610.866 182.147 610.87 182.125 610.876 182.105C610.883 182.084 610.892 182.066 610.904 182.05C610.916 182.034 610.93 182.022 610.946 182.013C610.961 182.004 610.978 182 610.995 182H614.088C614.122 182 614.154 182.018 614.179 182.049C614.203 182.081 614.216 182.124 614.216 182.169V183.027H616.148V182.17C616.148 182.147 616.151 182.125 616.158 182.105C616.164 182.084 616.174 182.066 616.186 182.05C616.198 182.034 616.212 182.022 616.227 182.013C616.243 182.004 616.26 182 616.277 182H619.369C619.403 182 619.436 182.018 619.46 182.049C619.485 182.081 619.498 182.124 619.498 182.169V183.027H621.432V182.17C621.432 182.147 621.436 182.125 621.442 182.105C621.448 182.084 621.458 182.066 621.47 182.05C621.482 182.034 621.496 182.022 621.512 182.013C621.527 182.004 621.544 182 621.561 182H624.653C624.688 182 624.72 182.018 624.745 182.049C624.769 182.081 624.782 182.124 624.782 182.169V183.027H626.714V182.17C626.714 182.147 626.717 182.125 626.724 182.105C626.73 182.084 626.74 182.066 626.752 182.05C626.764 182.034 626.778 182.022 626.793 182.013C626.809 182.004 626.826 182 626.843 182H651.065C651.082 182 651.098 182.004 651.114 182.013C651.13 182.021 651.144 182.034 651.156 182.049C651.168 182.065 651.177 182.084 651.184 182.104C651.19 182.125 651.194 182.147 651.194 182.169V183.027H653.128V182.17C653.128 182.147 653.131 182.125 653.137 182.105C653.144 182.084 653.153 182.066 653.165 182.05C653.177 182.034 653.191 182.022 653.207 182.013C653.223 182.004 653.239 182 653.256 182H656.349C656.383 182 656.416 182.018 656.44 182.05C656.464 182.082 656.477 182.125 656.478 182.17V183.027H658.41V182.17C658.41 182.147 658.413 182.125 658.419 182.105C658.426 182.084 658.435 182.066 658.447 182.05C658.459 182.034 658.473 182.022 658.489 182.013C658.504 182.004 658.521 182 658.538 182H661.631C661.648 182 661.664 182.004 661.68 182.013C661.696 182.021 661.71 182.034 661.722 182.049C661.734 182.065 661.743 182.084 661.75 182.104C661.756 182.125 661.76 182.147 661.76 182.169V183.027H663.691V182.17C663.691 182.147 663.695 182.125 663.701 182.105C663.708 182.084 663.717 182.066 663.729 182.05C663.741 182.034 663.755 182.022 663.771 182.013C663.786 182.005 663.803 182 663.82 182H666.912C666.929 182 666.946 182.004 666.962 182.013C666.977 182.021 666.992 182.034 667.004 182.049C667.016 182.065 667.025 182.084 667.032 182.104C667.038 182.125 667.041 182.147 667.041 182.169V183.027H668.975V182.17C668.975 182.147 668.979 182.125 668.985 182.105C668.992 182.084 669.001 182.066 669.013 182.05C669.025 182.034 669.039 182.022 669.055 182.013C669.07 182.005 669.087 182 669.104 182H672.197C672.23 182.001 672.263 182.019 672.286 182.051C672.31 182.082 672.323 182.125 672.323 182.17V183.027H674.257V182.17C674.257 182.147 674.261 182.125 674.267 182.105C674.273 182.084 674.283 182.066 674.295 182.05C674.307 182.034 674.321 182.022 674.337 182.013C674.352 182.005 674.369 182 674.386 182H677.478C677.495 182 677.512 182.004 677.528 182.013C677.543 182.021 677.557 182.034 677.569 182.049C677.581 182.065 677.591 182.084 677.597 182.104C677.604 182.125 677.607 182.147 677.607 182.169V183.027H679.539V182.17C679.539 182.147 679.542 182.125 679.549 182.105C679.555 182.084 679.565 182.066 679.577 182.05C679.589 182.034 679.603 182.022 679.618 182.013C679.634 182.005 679.651 182 679.668 182H682.76C682.777 182 682.794 182.004 682.809 182.013C682.825 182.021 682.839 182.034 682.851 182.049C682.863 182.065 682.873 182.084 682.879 182.104C682.886 182.125 682.889 182.147 682.889 182.169V183.027H691.908C692.728 183.026 693.514 183.455 694.094 184.217C694.674 184.979 695 186.014 695 187.092L695 187.094Z" fill="#2F2E41"/>
<path d="M648.585 72.2948C640.094 69.5691 635.759 58.3822 632 51L651.5 54.5L663.844 65.4805C665.171 72.2948 657.873 76.5537 648.585 72.2948Z" fill="#4E3C3D"/>
<rect x="511" y="59" width="40" height="4" rx="2" fill="white"/>
<rect x="504" y="73" width="76" height="4" rx="2" fill="white"/>
<rect x="563" y="59" width="17" height="4" rx="2" fill="white"/>
<rect x="685" y="52" width="26" height="4" rx="2" fill="white"/>
<rect x="685" y="52" width="26" height="4" rx="2" fill="white"/>
<rect x="674" y="38" width="53" height="4" rx="2" fill="white"/>
<rect x="722" y="52" width="37" height="4" rx="2" fill="white"/>
<line x1="613.5" y1="110" x2="613.5" y2="128" stroke="#2F2E41"/>
<path d="M663.5 106.5V128.5" stroke="#2F2E41"/>
<path d="M686.443 128H593.557C593.221 128 592.888 128.067 592.578 128.198C592.268 128.33 591.986 128.522 591.749 128.764C591.511 129.006 591.323 129.293 591.195 129.61C591.066 129.926 591 130.265 591 130.608V183.392C591 184.084 591.749 185.236 591.749 185.236C592.228 185.725 592.879 186 593.557 186H686.443C687.121 186 687.772 185.725 688.251 185.236C688.731 184.747 689 184.084 689 183.392V130.608C689 129.916 688.731 129.253 688.251 128.764C687.772 128.275 687.121 128 686.443 128Z" fill="#3F3D56"/>
<circle cx="640" cy="157" r="6" fill="#2B7489"/>
</g>
<path d="M54.4881 90H56.8517L61.025 74.9318H61.1728L65.3461 90H67.7097L72.8802 71.0909H70.5534L66.6017 86.4915H66.4171L62.3915 71.0909H59.8063L55.7807 86.4915H55.5961L51.6444 71.0909H49.3176L54.4881 90ZM80.0634 90.2955C82.9441 90.2955 85.0492 88.8551 85.714 86.7131L83.6088 86.1222C83.0549 87.5994 81.7715 88.3381 80.0634 88.3381C77.5059 88.3381 75.7424 86.6854 75.6408 83.6477H85.9355V82.7244C85.9355 77.4432 82.7963 75.6335 79.8418 75.6335C76.0009 75.6335 73.4526 78.6619 73.4526 83.0199C73.4526 87.3778 75.964 90.2955 80.0634 90.2955ZM75.6408 81.7642C75.7885 79.5575 77.3489 77.5909 79.8418 77.5909C82.2054 77.5909 83.7196 79.3636 83.7196 81.7642H75.6408ZM89.5456 90H91.6507V87.821H91.9093C92.3894 88.5966 93.3127 90.2955 96.0456 90.2955C99.5911 90.2955 102.066 87.4517 102.066 82.946C102.066 78.4773 99.5911 75.6335 96.0087 75.6335C93.2388 75.6335 92.3894 77.3324 91.9093 78.071H91.7246V71.0909H89.5456V90ZM91.6877 82.9091C91.6877 79.733 93.0911 77.5909 95.7502 77.5909C98.5201 77.5909 99.8865 79.9176 99.8865 82.9091C99.8865 85.9375 98.4831 88.3381 95.7502 88.3381C93.128 88.3381 91.6877 86.1222 91.6877 82.9091ZM118.066 90.2585C119.802 90.2585 121.741 89.6491 122.969 88.3935L124.308 90H126.93L124.317 86.8146C125.028 85.9006 125.822 84.3679 125.822 81.7273H123.717C123.717 83.0199 123.421 84.1648 122.932 85.1158L118.823 80.1023L120.208 79.0682C121.759 77.9233 122.72 76.6676 122.72 74.858C122.72 72.7528 120.984 70.9062 118.14 70.9062C115.37 70.9062 113.561 72.642 113.561 75.1903C113.561 76.8707 114.475 78.1634 115.776 79.733C113.57 81.2656 112.046 82.6875 112.046 84.9773C112.046 88.0426 114.336 90.2585 118.066 90.2585ZM121.667 86.8146C120.624 87.7933 119.303 88.3381 117.992 88.3381C115.74 88.3381 114.262 86.75 114.262 84.9773C114.262 84.4602 114.742 83.1307 116.441 81.875L117.143 81.358L121.667 86.8146ZM117.485 78.4773C116.561 77.3509 115.776 76.2798 115.776 75.2273C115.776 74.0455 116.774 72.7898 118.214 72.7898C119.58 72.7898 120.504 73.8977 120.504 74.858C120.504 76.1506 119.802 76.8523 118.731 77.554L117.485 78.4773ZM136.95 71.0909V90H139.092V75.6335H139.277L145.186 90H147.254L153.163 75.6335H153.348V90H155.49V71.0909H152.757L146.331 86.7869H146.109L139.683 71.0909H136.95ZM165.547 90.2955C169.388 90.2955 171.973 87.3778 171.973 82.983C171.973 78.5511 169.388 75.6335 165.547 75.6335C161.706 75.6335 159.121 78.5511 159.121 82.983C159.121 87.3778 161.706 90.2955 165.547 90.2955ZM165.547 88.3381C162.629 88.3381 161.3 85.8267 161.3 82.983C161.3 80.1392 162.629 77.5909 165.547 77.5909C168.464 77.5909 169.794 80.1392 169.794 82.983C169.794 85.8267 168.464 88.3381 165.547 88.3381ZM175.594 90H177.7V87.821H177.958C178.438 88.5966 179.362 90.2955 182.094 90.2955C185.64 90.2955 188.114 87.4517 188.114 82.946C188.114 78.4773 185.64 75.6335 182.058 75.6335C179.288 75.6335 178.438 77.3324 177.958 78.071H177.773V71.0909H175.594V90ZM177.737 82.9091C177.737 79.733 179.14 77.5909 181.799 77.5909C184.569 77.5909 185.935 79.9176 185.935 82.9091C185.935 85.9375 184.532 88.3381 181.799 88.3381C179.177 88.3381 177.737 86.1222 177.737 82.9091ZM191.447 90H193.626V75.8182H191.447V90ZM192.555 73.4545C193.405 73.4545 194.107 72.7898 194.107 71.9773C194.107 71.1648 193.405 70.5 192.555 70.5C191.706 70.5 191.004 71.1648 191.004 71.9773C191.004 72.7898 191.706 73.4545 192.555 73.4545ZM199.796 71.0909H197.617V90H199.796V71.0909ZM209.733 90.2955C212.614 90.2955 214.719 88.8551 215.384 86.7131L213.279 86.1222C212.725 87.5994 211.441 88.3381 209.733 88.3381C207.176 88.3381 205.412 86.6854 205.311 83.6477H215.605V82.7244C215.605 77.4432 212.466 75.6335 209.512 75.6335C205.671 75.6335 203.123 78.6619 203.123 83.0199C203.123 87.3778 205.634 90.2955 209.733 90.2955ZM205.311 81.7642C205.458 79.5575 207.019 77.5909 209.512 77.5909C211.875 77.5909 213.39 79.3636 213.39 81.7642H205.311ZM226.528 90H228.818V81.5426H237.017V79.5114H228.818V73.1222H237.866V71.0909H226.528V90ZM241.34 90H243.519V81.0256C243.519 79.1051 245.033 77.7017 247.101 77.7017C247.683 77.7017 248.283 77.8125 248.431 77.8494V75.6335C248.182 75.6151 247.609 75.5966 247.286 75.5966C245.587 75.5966 244.11 76.5568 243.593 77.9602H243.445V75.8182H241.34V90ZM256.344 90.2955C260.184 90.2955 262.77 87.3778 262.77 82.983C262.77 78.5511 260.184 75.6335 256.344 75.6335C252.503 75.6335 249.917 78.5511 249.917 82.983C249.917 87.3778 252.503 90.2955 256.344 90.2955ZM256.344 88.3381C253.426 88.3381 252.096 85.8267 252.096 82.983C252.096 80.1392 253.426 77.5909 256.344 77.5909C259.261 77.5909 260.591 80.1392 260.591 82.983C260.591 85.8267 259.261 88.3381 256.344 88.3381ZM268.275 81.4688C268.275 78.9943 269.808 77.5909 271.894 77.5909C273.916 77.5909 275.144 78.9112 275.144 81.1364V90H277.323V80.9886C277.323 77.3693 275.393 75.6335 272.522 75.6335C270.38 75.6335 269.05 76.5938 268.386 78.0341H268.201V75.8182H266.096V90H268.275V81.4688ZM287.472 75.8182H284.444V72.4205H282.265V75.8182H280.123V77.6648H282.265V86.5284C282.265 89.0028 284.259 90.1847 286.106 90.1847C286.919 90.1847 287.436 90.0369 287.731 89.9261L287.288 87.9688C287.103 88.0057 286.808 88.0795 286.328 88.0795C285.367 88.0795 284.444 87.7841 284.444 85.9375V77.6648H287.472V75.8182ZM298.367 80.8778H290.095V82.9091H298.367V80.8778ZM302.497 90H314.056V87.9688H304.787V81.5426H313.318V79.5114H304.787V73.1222H313.909V71.0909H302.497V90ZM319.919 81.4688C319.919 78.9943 321.452 77.5909 323.539 77.5909C325.561 77.5909 326.789 78.9112 326.789 81.1364V90H328.968V80.9886C328.968 77.3693 327.038 75.6335 324.167 75.6335C322.025 75.6335 320.695 76.5938 320.03 78.0341H319.846V75.8182H317.74V90H319.919V81.4688ZM338.305 90.2955C341.037 90.2955 341.961 88.5966 342.441 87.821H342.699V90H344.805V71.0909H342.626V78.071H342.441C341.961 77.3324 341.111 75.6335 338.341 75.6335C334.759 75.6335 332.285 78.4773 332.285 82.946C332.285 87.4517 334.759 90.2955 338.305 90.2955ZM338.6 88.3381C335.867 88.3381 334.464 85.9375 334.464 82.9091C334.464 79.9176 335.83 77.5909 338.6 77.5909C341.259 77.5909 342.662 79.733 342.662 82.9091C342.662 86.1222 341.222 88.3381 338.6 88.3381ZM362.541 90C368.302 90 371.552 86.4176 371.552 80.5085C371.552 74.6364 368.302 71.0909 362.8 71.0909H356.706V90H362.541ZM358.996 87.9688V73.1222H362.652C367.084 73.1222 369.336 75.929 369.336 80.5085C369.336 85.125 367.084 87.9688 362.393 87.9688H358.996ZM381.044 90.2955C383.925 90.2955 386.03 88.8551 386.694 86.7131L384.589 86.1222C384.035 87.5994 382.752 88.3381 381.044 88.3381C378.486 88.3381 376.723 86.6854 376.621 83.6477H386.916V82.7244C386.916 77.4432 383.777 75.6335 380.822 75.6335C376.981 75.6335 374.433 78.6619 374.433 83.0199C374.433 87.3778 376.944 90.2955 381.044 90.2955ZM376.621 81.7642C376.769 79.5575 378.329 77.5909 380.822 77.5909C383.186 77.5909 384.7 79.3636 384.7 81.7642H376.621ZM401.396 75.8182H399.032L395.117 87.1193H394.969L391.055 75.8182H388.691L393.935 90H396.151L401.396 75.8182ZM409.71 90.2955C412.591 90.2955 414.696 88.8551 415.36 86.7131L413.255 86.1222C412.701 87.5994 411.418 88.3381 409.71 88.3381C407.152 88.3381 405.389 86.6854 405.287 83.6477H415.582V82.7244C415.582 77.4432 412.443 75.6335 409.488 75.6335C405.647 75.6335 403.099 78.6619 403.099 83.0199C403.099 87.3778 405.61 90.2955 409.71 90.2955ZM405.287 81.7642C405.435 79.5575 406.995 77.5909 409.488 77.5909C411.852 77.5909 413.366 79.3636 413.366 81.7642H405.287ZM421.076 71.0909H418.897V90H421.076V71.0909ZM430.828 90.2955C434.669 90.2955 437.254 87.3778 437.254 82.983C437.254 78.5511 434.669 75.6335 430.828 75.6335C426.987 75.6335 424.402 78.5511 424.402 82.983C424.402 87.3778 426.987 90.2955 430.828 90.2955ZM430.828 88.3381C427.91 88.3381 426.581 85.8267 426.581 82.983C426.581 80.1392 427.91 77.5909 430.828 77.5909C433.746 77.5909 435.075 80.1392 435.075 82.983C435.075 85.8267 433.746 88.3381 430.828 88.3381ZM440.58 95.3182H442.759V87.821H442.944C443.424 88.5966 444.347 90.2955 447.08 90.2955C450.626 90.2955 453.1 87.4517 453.1 82.946C453.1 78.4773 450.626 75.6335 447.043 75.6335C444.273 75.6335 443.424 77.3324 442.944 78.071H442.685V75.8182H440.58V95.3182ZM442.722 82.9091C442.722 79.733 444.126 77.5909 446.785 77.5909C449.555 77.5909 450.921 79.9176 450.921 82.9091C450.921 85.9375 449.518 88.3381 446.785 88.3381C444.163 88.3381 442.722 86.1222 442.722 82.9091ZM462.37 90.2955C465.251 90.2955 467.356 88.8551 468.021 86.7131L465.915 86.1222C465.362 87.5994 464.078 88.3381 462.37 88.3381C459.812 88.3381 458.049 86.6854 457.947 83.6477H468.242V82.7244C468.242 77.4432 465.103 75.6335 462.148 75.6335C458.308 75.6335 455.759 78.6619 455.759 83.0199C455.759 87.3778 458.271 90.2955 462.37 90.2955ZM457.947 81.7642C458.095 79.5575 459.656 77.5909 462.148 77.5909C464.512 77.5909 466.026 79.3636 466.026 81.7642H457.947ZM471.557 90H473.736V81.0256C473.736 79.1051 475.25 77.7017 477.318 77.7017C477.9 77.7017 478.5 77.8125 478.648 77.8494V75.6335C478.398 75.6151 477.826 75.5966 477.503 75.5966C475.804 75.5966 474.327 76.5568 473.81 77.9602H473.662V75.8182H471.557V90Z" fill="#282A36"/>
<path d="M102.949 112.455V127H104.597V115.949H104.739L109.284 127H110.875L115.42 115.949H115.562V127H117.21V112.455H115.108L110.165 124.528H109.994L105.051 112.455H102.949ZM125.088 127.227C127.304 127.227 128.924 126.119 129.435 124.472L127.816 124.017C127.39 125.153 126.402 125.722 125.088 125.722C123.121 125.722 121.765 124.45 121.686 122.114H129.605V121.403C129.605 117.341 127.191 115.949 124.918 115.949C121.963 115.949 120.003 118.278 120.003 121.631C120.003 124.983 121.935 127.227 125.088 127.227ZM121.686 120.665C121.8 118.967 123 117.455 124.918 117.455C126.736 117.455 127.901 118.818 127.901 120.665H121.686ZM136.587 127.227C139.002 127.227 140.593 125.75 140.877 123.818H139.201C138.888 125.011 137.894 125.722 136.587 125.722C134.598 125.722 133.32 124.074 133.32 121.545C133.32 119.074 134.627 117.455 136.587 117.455C138.064 117.455 138.945 118.364 139.201 119.358H140.877C140.593 117.312 138.86 115.949 136.559 115.949C133.604 115.949 131.644 118.278 131.644 121.602C131.644 124.869 133.519 127.227 136.587 127.227ZM145.003 120.438C145.003 118.534 146.218 117.455 147.873 117.455C149.449 117.455 150.401 118.449 150.401 120.182V127H152.077V120.068C152.077 117.263 150.586 115.949 148.355 115.949C146.637 115.949 145.657 116.666 145.145 117.795H145.003V112.455H143.327V127H145.003V120.438ZM158.354 127.256C160.257 127.256 161.251 126.233 161.592 125.523H161.678V127H163.354V119.812C163.354 116.347 160.712 115.949 159.32 115.949C157.672 115.949 155.797 116.517 154.945 118.506L156.536 119.074C156.905 118.278 157.778 117.426 159.376 117.426C160.918 117.426 161.678 118.243 161.678 119.642V119.699C161.678 120.509 160.854 120.438 158.865 120.693C156.841 120.956 154.632 121.403 154.632 123.903C154.632 126.034 156.28 127.256 158.354 127.256ZM158.609 125.75C157.274 125.75 156.308 125.153 156.308 123.989C156.308 122.71 157.473 122.312 158.78 122.142C159.49 122.057 161.393 121.858 161.678 121.517V123.051C161.678 124.415 160.598 125.75 158.609 125.75ZM171.157 116.091H168.828V113.477H167.152V116.091H165.504V117.511H167.152V124.33C167.152 126.233 168.686 127.142 170.106 127.142C170.731 127.142 171.129 127.028 171.356 126.943L171.015 125.438C170.873 125.466 170.646 125.523 170.277 125.523C169.538 125.523 168.828 125.295 168.828 123.875V117.511H171.157V116.091ZM173.679 127H175.355V120.097C175.355 118.619 176.52 117.54 178.11 117.54C178.558 117.54 179.02 117.625 179.133 117.653V115.949C178.941 115.935 178.501 115.92 178.252 115.92C176.946 115.92 175.809 116.659 175.412 117.739H175.298V116.091H173.679V127ZM185.22 127.227C188.174 127.227 190.163 124.983 190.163 121.602C190.163 118.193 188.174 115.949 185.22 115.949C182.265 115.949 180.277 118.193 180.277 121.602C180.277 124.983 182.265 127.227 185.22 127.227ZM185.22 125.722C182.975 125.722 181.953 123.79 181.953 121.602C181.953 119.415 182.975 117.455 185.22 117.455C187.464 117.455 188.487 119.415 188.487 121.602C188.487 123.79 187.464 125.722 185.22 125.722ZM194.398 120.438C194.398 118.534 195.577 117.455 197.182 117.455C198.737 117.455 199.682 118.47 199.682 120.182V127H201.358V120.068C201.358 117.284 199.874 115.949 197.665 115.949C196.017 115.949 194.994 116.688 194.483 117.795H194.341V116.091H192.722V127H194.398V120.438ZM204.421 127H206.097V116.091H204.421V127ZM205.273 114.273C205.926 114.273 206.466 113.761 206.466 113.136C206.466 112.511 205.926 112 205.273 112C204.62 112 204.08 112.511 204.08 113.136C204.08 113.761 204.62 114.273 205.273 114.273ZM213.599 127.227C216.013 127.227 217.604 125.75 217.888 123.818H216.212C215.9 125.011 214.906 125.722 213.599 125.722C211.61 125.722 210.332 124.074 210.332 121.545C210.332 119.074 211.638 117.455 213.599 117.455C215.076 117.455 215.957 118.364 216.212 119.358H217.888C217.604 117.312 215.871 115.949 213.57 115.949C210.616 115.949 208.656 118.278 208.656 121.602C208.656 124.869 210.531 127.227 213.599 127.227ZM228.066 118.534C227.54 116.986 226.362 115.949 224.202 115.949C221.901 115.949 220.197 117.256 220.197 119.102C220.197 120.608 221.092 121.616 223.094 122.085L224.913 122.511C226.013 122.767 226.532 123.293 226.532 124.045C226.532 124.983 225.538 125.75 223.975 125.75C222.604 125.75 221.745 125.161 221.447 123.989L219.856 124.386C220.246 126.24 221.773 127.227 224.004 127.227C226.539 127.227 228.265 125.842 228.265 123.96C228.265 122.44 227.313 121.482 225.367 121.006L223.748 120.608C222.455 120.288 221.873 119.855 221.873 119.017C221.873 118.08 222.867 117.398 224.202 117.398C225.665 117.398 226.269 118.207 226.56 118.96L228.066 118.534ZM236.64 127H245.532V125.438H238.402V120.494H244.964V118.932H238.402V114.017H245.419V112.455H236.64V127ZM250.042 120.438C250.042 118.534 251.221 117.455 252.826 117.455C254.382 117.455 255.326 118.47 255.326 120.182V127H257.002V120.068C257.002 117.284 255.518 115.949 253.309 115.949C251.662 115.949 250.639 116.688 250.127 117.795H249.985V116.091H248.366V127H250.042V120.438ZM264.469 131.318C267.082 131.318 269.185 130.125 269.185 127.312V116.091H267.565V117.824H267.395C267.026 117.256 266.344 115.949 264.213 115.949C261.457 115.949 259.554 118.136 259.554 121.489C259.554 124.898 261.543 126.83 264.185 126.83C266.315 126.83 266.997 125.58 267.366 124.983H267.509V127.199C267.509 129.017 266.23 129.841 264.469 129.841C262.487 129.841 261.791 128.797 261.344 128.193L260.009 129.131C260.69 130.274 262.033 131.318 264.469 131.318ZM264.412 125.324C262.31 125.324 261.23 123.733 261.23 121.46C261.23 119.244 262.281 117.455 264.412 117.455C266.457 117.455 267.537 119.102 267.537 121.46C267.537 123.875 266.429 125.324 264.412 125.324ZM272.253 127H273.929V116.091H272.253V127ZM273.105 114.273C273.759 114.273 274.298 113.761 274.298 113.136C274.298 112.511 273.759 112 273.105 112C272.452 112 271.912 112.511 271.912 113.136C271.912 113.761 272.452 114.273 273.105 114.273ZM278.675 120.438C278.675 118.534 279.854 117.455 281.459 117.455C283.015 117.455 283.959 118.47 283.959 120.182V127H285.635V120.068C285.635 117.284 284.151 115.949 281.942 115.949C280.294 115.949 279.272 116.688 278.76 117.795H278.618V116.091H276.999V127H278.675V120.438ZM293.272 127.227C295.488 127.227 297.107 126.119 297.619 124.472L295.999 124.017C295.573 125.153 294.586 125.722 293.272 125.722C291.305 125.722 289.948 124.45 289.87 122.114H297.789V121.403C297.789 117.341 295.374 115.949 293.102 115.949C290.147 115.949 288.187 118.278 288.187 121.631C288.187 124.983 290.119 127.227 293.272 127.227ZM289.87 120.665C289.984 118.967 291.184 117.455 293.102 117.455C294.92 117.455 296.085 118.818 296.085 120.665H289.87ZM304.913 127.227C307.129 127.227 308.748 126.119 309.259 124.472L307.64 124.017C307.214 125.153 306.227 125.722 304.913 125.722C302.945 125.722 301.589 124.45 301.511 122.114H309.43V121.403C309.43 117.341 307.015 115.949 304.742 115.949C301.788 115.949 299.827 118.278 299.827 121.631C299.827 124.983 301.759 127.227 304.913 127.227ZM301.511 120.665C301.624 118.967 302.825 117.455 304.742 117.455C306.56 117.455 307.725 118.818 307.725 120.665H301.511ZM311.979 127H313.656V120.097C313.656 118.619 314.82 117.54 316.411 117.54C316.859 117.54 317.32 117.625 317.434 117.653V115.949C317.242 115.935 316.802 115.92 316.553 115.92C315.246 115.92 314.11 116.659 313.712 117.739H313.599V116.091H311.979V127ZM319.421 127H321.097V116.091H319.421V127ZM320.273 114.273C320.926 114.273 321.466 113.761 321.466 113.136C321.466 112.511 320.926 112 320.273 112C319.62 112 319.08 112.511 319.08 113.136C319.08 113.761 319.62 114.273 320.273 114.273ZM325.843 120.438C325.843 118.534 327.022 117.455 328.627 117.455C330.183 117.455 331.127 118.47 331.127 120.182V127H332.803V120.068C332.803 117.284 331.319 115.949 329.11 115.949C327.462 115.949 326.44 116.688 325.928 117.795H325.786V116.091H324.167V127H325.843V120.438ZM340.27 131.318C342.883 131.318 344.985 130.125 344.985 127.312V116.091H343.366V117.824H343.196C342.826 117.256 342.145 115.949 340.014 115.949C337.258 115.949 335.355 118.136 335.355 121.489C335.355 124.898 337.343 126.83 339.985 126.83C342.116 126.83 342.798 125.58 343.167 124.983H343.309V127.199C343.309 129.017 342.031 129.841 340.27 129.841C338.288 129.841 337.592 128.797 337.145 128.193L335.809 129.131C336.491 130.274 337.833 131.318 340.27 131.318ZM340.213 125.324C338.11 125.324 337.031 123.733 337.031 121.46C337.031 119.244 338.082 117.455 340.213 117.455C342.258 117.455 343.338 119.102 343.338 121.46C343.338 123.875 342.23 125.324 340.213 125.324ZM361.86 116.091H363.565C363.487 113.896 361.463 112.256 358.65 112.256C355.866 112.256 353.679 113.875 353.679 116.318C353.679 118.278 355.099 119.443 357.372 120.097L359.162 120.608C360.696 121.034 362.059 121.574 362.059 123.023C362.059 124.614 360.525 125.665 358.508 125.665C356.775 125.665 355.241 124.898 355.099 123.25H353.281C353.451 125.636 355.383 127.256 358.508 127.256C361.86 127.256 363.764 125.409 363.764 123.051C363.764 120.324 361.179 119.443 359.673 119.045L358.196 118.648C357.116 118.364 355.383 117.795 355.383 116.233C355.383 114.841 356.662 113.818 358.593 113.818C360.355 113.818 361.69 114.656 361.86 116.091ZM371.177 116.091H368.847V113.477H367.171V116.091H365.523V117.511H367.171V124.33C367.171 126.233 368.705 127.142 370.126 127.142C370.751 127.142 371.148 127.028 371.376 126.943L371.035 125.438C370.893 125.466 370.665 125.523 370.296 125.523C369.558 125.523 368.847 125.295 368.847 123.875V117.511H371.177V116.091ZM380.573 122.54C380.573 124.585 379.011 125.523 377.761 125.523C376.369 125.523 375.374 124.5 375.374 122.909V116.091H373.698V123.023C373.698 125.807 375.175 127.142 377.221 127.142C378.869 127.142 379.948 126.261 380.46 125.153H380.573V127H382.249V116.091H380.573V122.54ZM389.439 127.227C391.541 127.227 392.251 125.92 392.62 125.324H392.819V127H394.439V112.455H392.762V117.824H392.62C392.251 117.256 391.598 115.949 389.467 115.949C386.711 115.949 384.808 118.136 384.808 121.574C384.808 125.04 386.711 127.227 389.439 127.227ZM389.666 125.722C387.564 125.722 386.484 123.875 386.484 121.545C386.484 119.244 387.535 117.455 389.666 117.455C391.711 117.455 392.791 119.102 392.791 121.545C392.791 124.017 391.683 125.722 389.666 125.722ZM402.315 127.227C404.531 127.227 406.15 126.119 406.662 124.472L405.042 124.017C404.616 125.153 403.629 125.722 402.315 125.722C400.348 125.722 398.991 124.45 398.913 122.114H406.832V121.403C406.832 117.341 404.417 115.949 402.145 115.949C399.19 115.949 397.23 118.278 397.23 121.631C397.23 124.983 399.162 127.227 402.315 127.227ZM398.913 120.665C399.027 118.967 400.227 117.455 402.145 117.455C403.963 117.455 405.127 118.818 405.127 120.665H398.913ZM411.058 120.438C411.058 118.534 412.237 117.455 413.842 117.455C415.397 117.455 416.342 118.47 416.342 120.182V127H418.018V120.068C418.018 117.284 416.534 115.949 414.325 115.949C412.677 115.949 411.654 116.688 411.143 117.795H411.001V116.091H409.382V127H411.058V120.438ZM425.825 116.091H423.496V113.477H421.82V116.091H420.172V117.511H421.82V124.33C421.82 126.233 423.354 127.142 424.774 127.142C425.399 127.142 425.797 127.028 426.024 126.943L425.683 125.438C425.541 125.466 425.314 125.523 424.945 125.523C424.206 125.523 423.496 125.295 423.496 123.875V117.511H425.825V116.091Z" fill="#282A36"/>
<defs>
<clipPath id="clip0">
<rect width="275" height="254.135" fill="white" transform="translate(498 5)"/>
</clipPath>
</defs>
</svg>
