<svg width="795" height="104" viewBox="0 0 795 104" fill="none" xmlns="http://www.w3.org/2000/svg">
<rect width="795" height="104" rx="8" fill="#282A36"/>
<path d="M300.48 36.18C301.46 36.18 302.244 36.474 302.832 37.062C303.42 37.65 303.714 38.434 303.714 39.414V62.976C303.714 63.956 303.42 64.754 302.832 65.37C302.244 65.958 301.46 66.252 300.48 66.252C299.5 66.252 298.716 65.958 298.128 65.37C297.568 64.782 297.288 63.984 297.288 62.976V53.568H283.638V62.976C283.638 63.956 283.344 64.754 282.756 65.37C282.168 65.958 281.398 66.252 280.446 66.252C279.466 66.252 278.682 65.958 278.094 65.37C277.506 64.782 277.212 63.984 277.212 62.976V39.414C277.212 38.434 277.506 37.65 278.094 37.062C278.682 36.474 279.466 36.18 280.446 36.18C281.426 36.18 282.196 36.474 282.756 37.062C283.344 37.65 283.638 38.434 283.638 39.414V48.36H297.288V39.414C297.288 38.434 297.568 37.65 298.128 37.062C298.716 36.474 299.5 36.18 300.48 36.18ZM325.659 59.868C326.219 59.868 326.667 60.092 327.003 60.54C327.367 60.988 327.549 61.562 327.549 62.262C327.549 62.738 327.409 63.186 327.129 63.606C326.849 63.998 326.457 64.334 325.953 64.614C325.001 65.118 323.895 65.538 322.635 65.874C321.375 66.182 320.213 66.336 319.149 66.336C316.909 66.336 314.949 65.902 313.269 65.034C311.617 64.166 310.343 62.934 309.447 61.338C308.551 59.714 308.103 57.81 308.103 55.626C308.103 53.526 308.537 51.664 309.405 50.04C310.273 48.416 311.477 47.156 313.017 46.26C314.557 45.336 316.307 44.874 318.267 44.874C320.143 44.874 321.781 45.294 323.181 46.134C324.609 46.946 325.715 48.122 326.499 49.662C327.283 51.174 327.675 52.952 327.675 54.996C327.675 55.612 327.521 56.088 327.213 56.424C326.933 56.732 326.527 56.886 325.995 56.886H314.235C314.431 58.538 314.935 59.742 315.747 60.498C316.559 61.226 317.721 61.59 319.233 61.59C320.045 61.59 320.773 61.492 321.417 61.296C322.061 61.1 322.775 60.834 323.559 60.498C323.951 60.33 324.329 60.19 324.693 60.078C325.057 59.938 325.379 59.868 325.659 59.868ZM318.435 49.242C317.231 49.242 316.265 49.634 315.537 50.418C314.809 51.174 314.375 52.28 314.235 53.736H322.341C322.257 52.252 321.879 51.132 321.207 50.376C320.563 49.62 319.639 49.242 318.435 49.242ZM334.697 66.252C333.773 66.252 333.003 66 332.387 65.496C331.799 64.992 331.505 64.25 331.505 63.27V39.162C331.505 38.182 331.799 37.44 332.387 36.936C333.003 36.432 333.773 36.18 334.697 36.18C335.593 36.18 336.335 36.432 336.923 36.936C337.539 37.44 337.847 38.182 337.847 39.162V63.27C337.847 64.25 337.539 64.992 336.923 65.496C336.335 66 335.593 66.252 334.697 66.252ZM345.895 66.252C344.971 66.252 344.201 66 343.585 65.496C342.997 64.992 342.703 64.25 342.703 63.27V39.162C342.703 38.182 342.997 37.44 343.585 36.936C344.201 36.432 344.971 36.18 345.895 36.18C346.791 36.18 347.533 36.432 348.121 36.936C348.737 37.44 349.045 38.182 349.045 39.162V63.27C349.045 64.25 348.737 64.992 348.121 65.496C347.533 66 346.791 66.252 345.895 66.252ZM363.812 66.336C361.628 66.336 359.71 65.902 358.058 65.034C356.406 64.138 355.132 62.892 354.236 61.296C353.34 59.672 352.892 57.768 352.892 55.584C352.892 53.4 353.34 51.51 354.236 49.914C355.132 48.29 356.406 47.044 358.058 46.176C359.71 45.308 361.628 44.874 363.812 44.874C365.996 44.874 367.914 45.308 369.566 46.176C371.218 47.044 372.492 48.29 373.388 49.914C374.284 51.51 374.732 53.4 374.732 55.584C374.732 57.768 374.284 59.672 373.388 61.296C372.492 62.892 371.218 64.138 369.566 65.034C367.914 65.902 365.996 66.336 363.812 66.336ZM363.812 61.506C366.892 61.506 368.432 59.532 368.432 55.584C368.432 53.596 368.026 52.112 367.214 51.132C366.43 50.152 365.296 49.662 363.812 49.662C360.732 49.662 359.192 51.636 359.192 55.584C359.192 59.532 360.732 61.506 363.812 61.506ZM427.534 38.154C427.786 37.482 428.164 36.978 428.668 36.642C429.2 36.278 429.788 36.096 430.432 36.096C431.244 36.096 431.93 36.348 432.49 36.852C433.078 37.356 433.372 38.042 433.372 38.91C433.372 39.33 433.288 39.792 433.12 40.296L424.384 64.194C424.132 64.866 423.684 65.398 423.04 65.79C422.424 66.154 421.738 66.336 420.982 66.336C420.226 66.336 419.54 66.154 418.924 65.79C418.308 65.398 417.874 64.866 417.622 64.194L411.364 46.512L404.938 64.194C404.686 64.866 404.252 65.398 403.636 65.79C403.02 66.154 402.334 66.336 401.578 66.336C400.85 66.336 400.164 66.154 399.52 65.79C398.904 65.398 398.47 64.866 398.218 64.194L389.482 40.296C389.314 39.82 389.23 39.372 389.23 38.952C389.23 38.084 389.538 37.398 390.154 36.894C390.77 36.362 391.498 36.096 392.338 36.096C393.01 36.096 393.612 36.278 394.144 36.642C394.704 36.978 395.11 37.482 395.362 38.154L401.83 56.76L408.55 38.238C408.802 37.566 409.194 37.048 409.726 36.684C410.286 36.32 410.874 36.138 411.49 36.138C412.134 36.138 412.722 36.32 413.254 36.684C413.786 37.048 414.178 37.58 414.43 38.28L420.856 57.096L427.534 38.154ZM444.572 66.336C442.388 66.336 440.47 65.902 438.818 65.034C437.166 64.138 435.892 62.892 434.996 61.296C434.1 59.672 433.652 57.768 433.652 55.584C433.652 53.4 434.1 51.51 434.996 49.914C435.892 48.29 437.166 47.044 438.818 46.176C440.47 45.308 442.388 44.874 444.572 44.874C446.756 44.874 448.674 45.308 450.326 46.176C451.978 47.044 453.252 48.29 454.148 49.914C455.044 51.51 455.492 53.4 455.492 55.584C455.492 57.768 455.044 59.672 454.148 61.296C453.252 62.892 451.978 64.138 450.326 65.034C448.674 65.902 446.756 66.336 444.572 66.336ZM444.572 61.506C447.652 61.506 449.192 59.532 449.192 55.584C449.192 53.596 448.786 52.112 447.974 51.132C447.19 50.152 446.056 49.662 444.572 49.662C441.492 49.662 439.952 51.636 439.952 55.584C439.952 59.532 441.492 61.506 444.572 61.506ZM471.657 44.958C472.497 44.902 473.155 45.098 473.631 45.546C474.135 45.966 474.387 46.61 474.387 47.478C474.387 48.402 474.163 49.088 473.715 49.536C473.267 49.984 472.469 50.264 471.321 50.376L470.061 50.502C468.521 50.67 467.401 51.174 466.701 52.014C466.029 52.854 465.693 53.932 465.693 55.248V63.27C465.693 64.25 465.385 64.992 464.769 65.496C464.181 66 463.439 66.252 462.543 66.252C461.619 66.252 460.849 66 460.233 65.496C459.645 64.992 459.351 64.25 459.351 63.27V47.856C459.351 46.932 459.659 46.218 460.275 45.714C460.891 45.21 461.633 44.958 462.501 44.958C463.341 44.958 464.041 45.21 464.601 45.714C465.161 46.19 465.441 46.862 465.441 47.73V48.864C465.945 47.66 466.701 46.736 467.709 46.092C468.745 45.448 469.865 45.084 471.069 45L471.657 44.958ZM479.4 66.252C478.476 66.252 477.706 66 477.09 65.496C476.502 64.992 476.208 64.25 476.208 63.27V39.162C476.208 38.182 476.502 37.44 477.09 36.936C477.706 36.432 478.476 36.18 479.4 36.18C480.296 36.18 481.038 36.432 481.626 36.936C482.242 37.44 482.55 38.182 482.55 39.162V63.27C482.55 64.25 482.242 64.992 481.626 65.496C481.038 66 480.296 66.252 479.4 66.252ZM505.004 36.18C505.984 36.18 506.768 36.446 507.356 36.978C507.972 37.51 508.28 38.21 508.28 39.078V63.27C508.28 64.166 507.986 64.894 507.398 65.454C506.838 65.986 506.082 66.252 505.13 66.252C504.178 66.252 503.408 65.986 502.82 65.454C502.26 64.894 501.98 64.166 501.98 63.27V62.934C501.364 63.998 500.482 64.838 499.334 65.454C498.214 66.042 496.94 66.336 495.512 66.336C493.748 66.336 492.166 65.888 490.766 64.992C489.394 64.068 488.316 62.794 487.532 61.17C486.776 59.518 486.398 57.628 486.398 55.5C486.398 53.372 486.776 51.51 487.532 49.914C488.316 48.29 489.394 47.044 490.766 46.176C492.138 45.308 493.72 44.874 495.512 44.874C496.912 44.874 498.172 45.168 499.292 45.756C500.44 46.344 501.322 47.17 501.938 48.234V38.952C501.938 38.112 502.218 37.44 502.778 36.936C503.338 36.432 504.08 36.18 505.004 36.18ZM497.36 61.506C498.844 61.506 499.978 61.002 500.762 59.994C501.574 58.958 501.98 57.488 501.98 55.584C501.98 53.68 501.574 52.224 500.762 51.216C499.978 50.208 498.844 49.704 497.36 49.704C495.876 49.704 494.728 50.208 493.916 51.216C493.104 52.196 492.698 53.624 492.698 55.5C492.698 57.404 493.104 58.888 493.916 59.952C494.728 60.988 495.876 61.506 497.36 61.506Z" fill="#DD6387"/>
<rect x="231" y="51.4637" width="30.2802" height="6.05603" rx="3.02802" transform="rotate(-40 231 51.4637)" fill="#DD6387"/>
<rect x="234.893" y="47.8971" width="30.2802" height="6.05603" rx="3.02802" transform="rotate(40 234.893 47.8971)" fill="#DD6387"/>
<rect x="552.089" y="52.5363" width="30.2802" height="6.05603" rx="3.02802" transform="rotate(140 552.089 52.5363)" fill="#DD6387"/>
<rect x="548.196" y="56.1029" width="30.2802" height="6.05603" rx="3.02802" transform="rotate(-140 548.196 56.1029)" fill="#DD6387"/>
</svg>
