<svg width="795" height="104" viewBox="0 0 795 104" fill="none" xmlns="http://www.w3.org/2000/svg">
<rect width="795" height="104" rx="8" fill="#282A36"/>
<path d="M301.838 66.252C300.55 66.308 299.57 66.112 298.898 65.664C298.254 65.216 297.932 64.53 297.932 63.606C297.932 62.766 298.142 62.15 298.562 61.758C298.982 61.338 299.64 61.1 300.536 61.044L301.88 60.96C303.896 60.876 304.904 59.686 304.904 57.39V39.414C304.904 38.434 305.212 37.65 305.828 37.062C306.444 36.474 307.242 36.18 308.222 36.18C309.202 36.18 309.986 36.474 310.574 37.062C311.19 37.65 311.498 38.434 311.498 39.414V57.306C311.498 62.85 308.726 65.804 303.182 66.168L301.838 66.252ZM333.546 44.958C334.526 44.958 335.296 45.224 335.856 45.756C336.444 46.288 336.738 47.016 336.738 47.94V63.354C336.738 64.222 336.43 64.922 335.814 65.454C335.226 65.986 334.456 66.252 333.504 66.252C332.608 66.252 331.894 66 331.362 65.496C330.83 64.992 330.564 64.32 330.564 63.48V63.06C329.92 64.124 329.066 64.936 328.002 65.496C326.966 66.056 325.79 66.336 324.474 66.336C321.87 66.336 319.924 65.622 318.636 64.194C317.376 62.738 316.746 60.554 316.746 57.642V47.94C316.746 47.016 317.026 46.288 317.586 45.756C318.174 45.224 318.958 44.958 319.938 44.958C320.918 44.958 321.688 45.224 322.248 45.756C322.808 46.288 323.088 47.016 323.088 47.94V57.768C323.088 59 323.34 59.91 323.844 60.498C324.376 61.086 325.174 61.38 326.238 61.38C327.47 61.38 328.464 60.96 329.22 60.12C330.004 59.28 330.396 58.174 330.396 56.802V47.94C330.396 47.016 330.676 46.288 331.236 45.756C331.796 45.224 332.566 44.958 333.546 44.958ZM328.002 42.522C327.666 42.774 327.302 42.9 326.91 42.9C326.462 42.9 326.084 42.746 325.776 42.438C325.468 42.13 325.314 41.766 325.314 41.346C325.314 40.982 325.44 40.618 325.692 40.254L329.304 35.424C330.004 34.472 330.844 33.996 331.824 33.996C332.524 33.996 333.14 34.248 333.672 34.752C334.204 35.256 334.47 35.844 334.47 36.516C334.47 37.356 334.022 38.112 333.126 38.784L328.002 42.522ZM344.796 66.252C343.872 66.252 343.102 66 342.486 65.496C341.898 64.992 341.604 64.25 341.604 63.27V39.162C341.604 38.182 341.898 37.44 342.486 36.936C343.102 36.432 343.872 36.18 344.796 36.18C345.692 36.18 346.434 36.432 347.022 36.936C347.638 37.44 347.946 38.182 347.946 39.162V63.27C347.946 64.25 347.638 64.992 347.022 65.496C346.434 66 345.692 66.252 344.796 66.252ZM355.993 66.252C355.069 66.252 354.299 66 353.683 65.496C353.095 64.992 352.801 64.25 352.801 63.27V47.94C352.801 46.96 353.109 46.218 353.725 45.714C354.341 45.21 355.097 44.958 355.993 44.958C356.889 44.958 357.631 45.21 358.219 45.714C358.835 46.218 359.143 46.96 359.143 47.94V63.27C359.143 64.25 358.835 64.992 358.219 65.496C357.631 66 356.889 66.252 355.993 66.252ZM355.993 41.598C354.873 41.598 353.991 41.318 353.347 40.758C352.703 40.17 352.381 39.386 352.381 38.406C352.381 37.426 352.703 36.656 353.347 36.096C353.991 35.536 354.873 35.256 355.993 35.256C357.085 35.256 357.953 35.55 358.597 36.138C359.269 36.698 359.605 37.454 359.605 38.406C359.605 39.386 359.283 40.17 358.639 40.758C357.995 41.318 357.113 41.598 355.993 41.598ZM373.281 44.874C376.305 44.874 378.545 45.616 380.001 47.1C381.457 48.556 382.185 50.796 382.185 53.82V63.312C382.185 64.236 381.919 64.964 381.387 65.496C380.855 66 380.113 66.252 379.161 66.252C378.265 66.252 377.537 65.986 376.977 65.454C376.445 64.894 376.179 64.18 376.179 63.312V63.018C375.759 64.054 375.059 64.866 374.079 65.454C373.099 66.042 371.951 66.336 370.635 66.336C369.235 66.336 367.961 66.056 366.812 65.496C365.693 64.936 364.797 64.152 364.125 63.144C363.481 62.136 363.159 61.016 363.159 59.784C363.159 58.272 363.537 57.082 364.293 56.214C365.077 55.346 366.323 54.716 368.031 54.324C369.739 53.932 372.077 53.736 375.045 53.736H376.137V52.98C376.137 51.804 375.871 50.95 375.339 50.418C374.835 49.886 373.981 49.62 372.777 49.62C371.573 49.62 369.837 50.04 367.569 50.88C366.925 51.188 366.379 51.342 365.931 51.342C365.315 51.342 364.825 51.132 364.461 50.712C364.097 50.264 363.915 49.69 363.915 48.99C363.915 48.43 364.041 47.968 364.293 47.604C364.545 47.24 364.951 46.904 365.511 46.596C366.491 46.064 367.681 45.644 369.081 45.336C370.509 45.028 371.909 44.874 373.281 44.874ZM372.021 61.968C373.253 61.968 374.247 61.562 375.003 60.75C375.759 59.91 376.137 58.832 376.137 57.516V56.802H375.423C373.155 56.802 371.559 56.984 370.635 57.348C369.739 57.712 369.291 58.37 369.291 59.322C369.291 60.106 369.543 60.75 370.047 61.254C370.579 61.73 371.237 61.968 372.021 61.968ZM418.187 50.67C419.895 51.174 421.211 52.056 422.135 53.316C423.087 54.548 423.563 56.074 423.563 57.894C423.563 60.386 422.639 62.36 420.791 63.816C418.971 65.272 416.451 66 413.231 66H402.227C401.247 66 400.491 65.734 399.959 65.202C399.427 64.67 399.161 63.914 399.161 62.934V39.456C399.161 38.476 399.427 37.72 399.959 37.188C400.491 36.656 401.247 36.39 402.227 36.39H412.811C415.891 36.39 418.327 37.076 420.119 38.448C421.939 39.82 422.849 41.696 422.849 44.076C422.849 45.616 422.429 46.974 421.589 48.15C420.777 49.298 419.643 50.138 418.187 50.67ZM405.545 48.444H411.719C413.399 48.444 414.631 48.164 415.415 47.604C416.227 47.016 416.633 46.134 416.633 44.958C416.633 43.726 416.227 42.83 415.415 42.27C414.631 41.682 413.399 41.388 411.719 41.388H405.545V48.444ZM412.475 61.002C414.211 61.002 415.471 60.708 416.255 60.12C417.039 59.532 417.431 58.58 417.431 57.264C417.431 55.948 417.039 54.982 416.255 54.366C415.471 53.75 414.211 53.442 412.475 53.442H405.545V61.002H412.475ZM439.92 44.958C440.76 44.902 441.418 45.098 441.894 45.546C442.398 45.966 442.65 46.61 442.65 47.478C442.65 48.402 442.426 49.088 441.978 49.536C441.53 49.984 440.732 50.264 439.584 50.376L438.324 50.502C436.784 50.67 435.664 51.174 434.964 52.014C434.292 52.854 433.956 53.932 433.956 55.248V63.27C433.956 64.25 433.648 64.992 433.032 65.496C432.444 66 431.702 66.252 430.806 66.252C429.882 66.252 429.112 66 428.496 65.496C427.908 64.992 427.614 64.25 427.614 63.27V47.856C427.614 46.932 427.922 46.218 428.538 45.714C429.154 45.21 429.896 44.958 430.764 44.958C431.604 44.958 432.304 45.21 432.864 45.714C433.424 46.19 433.704 46.862 433.704 47.73V48.864C434.208 47.66 434.964 46.736 435.972 46.092C437.008 45.448 438.128 45.084 439.332 45L439.92 44.958ZM447.663 66.252C446.739 66.252 445.969 66 445.353 65.496C444.765 64.992 444.471 64.25 444.471 63.27V47.94C444.471 46.96 444.779 46.218 445.395 45.714C446.011 45.21 446.767 44.958 447.663 44.958C448.559 44.958 449.301 45.21 449.889 45.714C450.505 46.218 450.813 46.96 450.813 47.94V63.27C450.813 64.25 450.505 64.992 449.889 65.496C449.301 66 448.559 66.252 447.663 66.252ZM447.663 41.598C446.543 41.598 445.661 41.318 445.017 40.758C444.373 40.17 444.051 39.386 444.051 38.406C444.051 37.426 444.373 36.656 445.017 36.096C445.661 35.536 446.543 35.256 447.663 35.256C448.755 35.256 449.623 35.55 450.267 36.138C450.939 36.698 451.275 37.454 451.275 38.406C451.275 39.386 450.953 40.17 450.309 40.758C449.665 41.318 448.783 41.598 447.663 41.598ZM468.365 61.632C469.205 61.688 469.821 61.898 470.213 62.262C470.605 62.626 470.801 63.158 470.801 63.858C470.801 64.67 470.479 65.286 469.835 65.706C469.191 66.126 468.267 66.294 467.063 66.21L465.887 66.126C460.987 65.734 458.537 63.172 458.537 58.44V50.124H456.857C455.933 50.124 455.233 49.928 454.757 49.536C454.281 49.116 454.043 48.528 454.043 47.772C454.043 46.988 454.281 46.4 454.757 46.008C455.233 45.588 455.933 45.378 456.857 45.378H458.537V42.102C458.537 41.178 458.817 40.45 459.377 39.918C459.965 39.386 460.749 39.12 461.729 39.12C462.709 39.12 463.479 39.386 464.039 39.918C464.599 40.45 464.879 41.178 464.879 42.102V45.378H467.819C469.723 45.378 470.675 46.176 470.675 47.772C470.675 48.528 470.437 49.116 469.961 49.536C469.485 49.928 468.771 50.124 467.819 50.124H464.879V58.902C464.879 59.742 465.075 60.386 465.467 60.834C465.859 61.254 466.433 61.492 467.189 61.548L468.365 61.632ZM483.053 66.336C480.869 66.336 478.951 65.902 477.299 65.034C475.647 64.138 474.373 62.892 473.477 61.296C472.581 59.672 472.133 57.768 472.133 55.584C472.133 53.4 472.581 51.51 473.477 49.914C474.373 48.29 475.647 47.044 477.299 46.176C478.951 45.308 480.869 44.874 483.053 44.874C485.237 44.874 487.155 45.308 488.807 46.176C490.459 47.044 491.733 48.29 492.629 49.914C493.525 51.51 493.973 53.4 493.973 55.584C493.973 57.768 493.525 59.672 492.629 61.296C491.733 62.892 490.459 64.138 488.807 65.034C487.155 65.902 485.237 66.336 483.053 66.336ZM483.053 61.506C486.133 61.506 487.673 59.532 487.673 55.584C487.673 53.596 487.267 52.112 486.455 51.132C485.671 50.152 484.537 49.662 483.053 49.662C479.973 49.662 478.433 51.636 478.433 55.584C478.433 59.532 479.973 61.506 483.053 61.506Z" fill="#DD6387"/>
<rect x="251" y="51.4637" width="30.2802" height="6.05603" rx="3.02802" transform="rotate(-40 251 51.4637)" fill="#DD6387"/>
<rect x="254.893" y="47.8971" width="30.2802" height="6.05603" rx="3.02802" transform="rotate(40 254.893 47.8971)" fill="#DD6387"/>
<rect x="534.276" y="27.4178" width="52.9168" height="6.05603" rx="3.02802" transform="rotate(103.54 534.276 27.4178)" fill="#DD6387"/>
<rect x="565.749" y="55.5577" width="30.2802" height="6.05603" rx="3.02802" transform="rotate(140 565.749 55.5577)" fill="#DD6387"/>
<rect x="561.856" y="59.1243" width="30.2802" height="6.05603" rx="3.02802" transform="rotate(-140 561.856 59.1243)" fill="#DD6387"/>
</svg>
